<!DOCTYPE svg PUBLIC "-//W3C//DTD SVG 1.1//EN" "http://www.w3.org/Graphics/SVG/1.1/DTD/svg11.dtd">
<!-- Uploaded to: SVG Repo, www.svgrepo.com, Transformed by: SVG Repo Mixer Tools -->
<svg fill="#533621" version="1.1" id="Capa_1" xmlns="http://www.w3.org/2000/svg" xmlns:xlink="http://www.w3.org/1999/xlink" width="800px" height="800px" viewBox="0 0 559.614 559.614" xml:space="preserve" stroke="#533621">
<g id="SVGRepo_bgCarrier" stroke-width="0"/>
<g id="SVGRepo_tracerCarrier" stroke-linecap="round" stroke-linejoin="round"/>
<g id="SVGRepo_iconCarrier"> <g> <g> <path d="M99.127,418.328c2.774,5.524,3.174,11.257,2.733,17.291c-0.383,5.227-0.351,10.502-0.13,15.74 c0.123,2.877,1.024,5.721,1.571,8.581c0.686-1.363,1.012-2.648,1.367-3.93c2.387-8.543,5.92-16.757,6.92-25.691 c1.142-10.204,1.24-20.188-4.027-29.323c-6.532-28.988,13.028-46.463,28.719-67.03c-0.224,10.326-0.241,20.661-0.273,30.992 c-0.065,18.204-1.579,36.246-5.463,54.063c-2.224,10.208-2.55,20.53-0.947,30.849c0.93,5.981,1.159,11.894-0.085,17.83 c-4.096,19.567-5.643,39.503-8.625,59.229c-0.29,1.922,0.236,3.06,1.717,4.312c4.015,3.387,4.676,5.238,1.991,10.526 c-0.542,1.068-1.036,2.199-1.302,3.362c-0.314,1.362,0.021,2.432,1.477,3.268c1.926,1.105,3.872,1.759,6.022,1.371 c2.958-0.534,5.867-1.322,8.821-1.894c1.559-0.302,1.832-1.167,1.387-2.464c-0.212-0.616-0.461-1.294-0.902-1.746 c-1.889-1.946-3.831-3.84-5.797-5.712c-1.42-1.351-2.249-2.832-2.126-4.917c0.204-3.565,0.143-7.144,0.257-10.714 c0.375-11.677,0.579-23.362,1.22-35.027c0.783-14.316,2.101-28.597,4.325-42.774c0.428-2.733,0.686-5.63,1.828-8.078 c1.729-3.729,2.844-7.536,3.582-11.542c1.403-7.613,2.958-15.198,5.989-22.379c4.737-11.212,10.792-21.653,18.393-31.163 c1.236-1.547,2.354-3.142,3.415-4.758c0.543,0.955,1.228,1.796,2.044,2.514c-0.135,0.592-0.192,1.207-0.041,1.722 c2.644,9.074,4.872,18.229,5.377,27.711c0.506,9.486-0.041,18.862-3.166,27.948c-0.261,0.763-0.384,1.697-0.204,2.464 c3.011,12.905,6.679,25.631,11.399,38.014c8.018,21.024,15.994,42.049,20.474,64.199c0.212,1.044,0.759,1.497,1.832,1.628 c1.375,0.167,2.729,0.526,4.084,0.845c3.321,0.779,4.879,3.859,2.832,6.87c-1.367,2.004-1.15,2.403,0.967,3.64 c0.465,0.27,0.975,0.514,1.498,0.616c4.431,0.845,8.792,0.171,13.142-0.661c0.881-0.167,1.143-0.693,0.738-1.611 c-2.652-6.067-4.663-7.336-11.24-7.006c-0.045,0-0.09-0.073-0.241-0.204c1.408-4.022,0.49-7.846-1.318-11.607 c-1.624-3.378-3.101-6.83-4.602-10.266c-8.543-19.539-16.292-39.331-19.294-60.633c-1.191-8.449-2.167-16.883-1.277-25.467 c0.485-4.709,1.599-8.964,4.553-12.754c0.996-1.277,1.62-3.012,1.926-4.627c1.697-8.952,4.435-17.577,7.882-25.985 c1.322-3.231,2.729-6.442,4.153-9.768c1.298-0.486,2.489-1.253,3.427-2.371c0.139-0.167,0.27-0.363,0.412-0.534 c0.898,0.013,1.787,0.073,2.689,0.049c0.241-0.004,0.477-0.024,0.718-0.032c6.932,0.604,13.852,0.126,20.559-1.354 c0.143-0.021,0.286-0.029,0.433-0.054c7.307-1.098,13.966-3.599,19.723-7.878c3.525-2.089,6.875-4.525,10.025-7.255 c-1.245,3.207-2.624,6.39-3.231,9.715c-1.293,7.038-1.094,14.207-0.331,21.347c0.657,6.137,1.204,12.285,1.616,18.441 c0.506,7.499-0.955,14.823-2.342,22.134c-1.167,6.161-1.673,12.338-0.857,18.581c0.424,3.239,1.024,6.454,1.391,9.698 c1.049,9.245,0.42,18.482-0.102,27.735c-0.6,10.628-1.958,21.204-1.713,31.894c0.249,11.118,1.179,22.085,4.614,32.737 c0.273,0.861,0.082,2.016-0.253,2.897c-0.799,2.121-0.229,2.945,2.064,2.855c1.363-0.053,2.742,0.11,4.113,0.18 c-0.946,1.073-1.983,1.596-2.844,2.321c-0.424,0.359-0.795,1.155-0.698,1.657c0.09,0.477,0.755,0.999,1.285,1.207 c0.947,0.372,1.971,0.58,2.982,0.751c4.346,0.755,8.708,0.983,13.082,0.314c-0.151-6.59-0.196-6.536-4.966-10.82 c-1.061-0.95-1.979-2.313-2.411-3.66c-0.881-2.754-1.322-5.643-2.057-8.449c-1.706-6.495-3.513-12.999-3.599-19.756 c-0.09-7.441-0.212-14.912,0.326-22.325c0.849-11.759,1.955-23.518,3.484-35.202c1.502-11.506,3.607-22.934,5.562-34.374 c2.228-13.052,4.386-26.12,6.944-39.107c2.203-11.203,4.92-22.309,7.413-33.456c0.139-0.611,0.302-1.216,0.453-1.823 c0.351,0.221,0.437,0.424,0.453,0.628c0.869,12.13,1.975,24.252,2.484,36.398c0.257,6.074-0.755,12.194-0.894,18.299 c-0.335,14.826-0.547,29.657-0.697,44.483c-0.049,4.778,0.008,9.58,0.42,14.338c1.036,12.113,2.162,24.223,3.513,36.304 c1.171,10.457,2.726,20.869,4.039,31.31c0.196,1.566,0.857,2.256,2.383,2.497c2.84,0.444,4.284,2.591,5.178,4.99 c1.212,3.256,1.456,6.683,0.86,10.036c2.109,0.515,4.08,1.049,6.084,1.473c2.819,0.601,5.639,1.277,8.494,1.62 c1.979,0.236,3.023-0.742,2.982-2.767c-0.032-1.64-0.18-3.578-1.061-4.838c-2.644-3.803-6.381-6.292-10.922-7.435 c-1.037-0.261-2.098-0.433-3.138-0.641c-0.118-1.008-0.221-1.905-0.335-2.803c-0.897-7.385-1.926-14.757-2.651-22.158 c-0.951-9.633-1.722-19.286-2.448-28.939c-0.478-6.336-0.926-12.685-1.028-19.033c-0.09-5.622,0.354-11.253,0.481-16.883 c0.347-15.802,1.33-31.56,3.309-47.247c1.388-11.004,3.623-21.815,7.454-32.265c1.27-3.46,2.648-6.928,3.399-10.514 c2.366-11.273,3.206-22.742,4.051-34.207c0.314-4.284,0.396-8.638,1.281-12.812c0.897-4.23,2.518-8.331,4.088-12.383 c1.017-2.615,1.017-5.206,0.62-7.833c-0.856-5.704-3.684-10.571-6.805-15.284c-1.437-2.171-2.962-4.28-4.337-6.483 c-0.318-0.506-0.449-1.399-0.225-1.921c1.787-4.101,3.492-8.258,5.59-12.204c7.698-14.472,15.315-28.992,23.378-43.26 c10.575-18.715,18.535-38.429,23.745-59.25c3.342-13.375,5.782-26.928,8.087-40.535c2.346-13.872,5.696-27.577,8.715-41.334 c0.841-3.827,1.926-7.613,3.166-11.331c0.347-1.04,1.604-2.448,2.514-2.501c3.284-0.191,6.662-0.257,9.882,0.322 c6.748,1.216,13.395,1.661,20.146,0.045c2.437-0.583,5.039-0.779,7.548-0.673c5.61,0.241,11.225,0.673,16.814,1.232 c3.941,0.396,7.209-0.873,10.522-3.443c-1.155-1.412-1.991-2.905-3.236-3.868c-3.108-2.399-6.271-4.794-9.657-6.765 c-5.797-3.375-11.787-6.414-17.687-9.608c-4.753-2.571-8.801-5.692-11.135-10.918c-1.677-3.753-4.912-5.537-9.404-5.271 c-3.17,0.188-6.397,0.771-9.661-0.155c-1.926-0.547-3.427-1.391-4.663-2.844c-2.126-2.501-2.326-5.618-2.746-8.674 c-0.588-4.272-1.338-4.904-5.618-4.917c-0.18,0-0.371,0.012-0.543-0.037c-2.329-0.69-3.957,0.624-5.491,2.015 c-1.514,1.371-1.375,4.264,0.298,5.443c1.673,1.183,3.398,2.375,5.271,3.17c3.268,1.392,5.564,3.754,7.56,6.5 c-1.844,3.627-3.704,4.623-7.486,3.815c-1.755-0.375-3.554-0.836-5.141-1.632c-1.955-0.979-3.338-0.481-4.606,0.995 c-4.015,4.676-8.188,9.233-11.979,14.088c-6.01,7.691-10.485,16.3-13.476,25.565c-2.746,8.507-4.981,17.181-7.434,25.782 c-4.917,17.25-10.535,34.223-20.07,49.596c-2.064,3.333-4.243,6.638-6.72,9.669c-11.162,13.636-24.12,25.533-37.377,37.018 c-11.522,9.979-23.787,19.103-35.741,28.576c-1.563,1.236-3.436,2.126-4.839,3.509c-1.836,1.808-3.26,4.027-5.015,5.928 c-4.063,4.398-8.151,8.772-12.362,13.023c-1.469,1.481-3.231,2.75-5.035,3.811c-10.726,6.316-22.566,9.87-34.366,13.411 c-10.481,3.146-20.706,6.736-29.515,13.464c-2.301,1.759-4.974,3.338-6.593,5.623c-3.713,5.247-7.018,10.693-9.107,16.981 c-2.056,6.181-3.721,12.424-5.014,18.728c-0.253,0.399-0.481,0.84-0.661,1.334c-6.92,18.968-23.269,32.105-34.729,48.254 c-7.254,10.221-10.273,21.991-10.065,33.917c-2.236,4.871-2.342,10.135-0.898,15.149 C94.227,408.911,96.769,413.632,99.127,418.328z"/> </g> </g> </g>
</svg>